<?xml version='1.0' encoding='iso-8859-1'?>
<!-- Uploaded to: SVG Repo, www.svgrepo.com, Generator: SVG Repo Mixer Tools -->
<svg fill="#000000" height="800px" width="800px" version="1.1" xmlns="http://www.w3.org/2000/svg" viewBox="0 0 255.5 255.5" xmlns:xlink="http://www.w3.org/1999/xlink" enable-background="new 0 0 255.5 255.5">
  <g>
    <path d="m200.583,222.5h-6.333v-99.66c0-36.362-29.145-65.34-65.507-65.34h-0.32c-36.362,0-66.173,28.978-66.173,65.34v99.66h-6.667c-5.522,0-10.333,3.977-10.333,9.5v13c0,5.523 4.811,10.5 10.333,10.5h145c5.523,0 9.667-4.977 9.667-10.5v-13c0-5.523-4.145-9.5-9.667-9.5zm-72.16-141h-0.173v16h0.173c-14.248,0-25.84,12-25.84,26h-16c0-23 18.769-42 41.84-42z"/>
    <path d="m128.25,33c4.418,0 8-3.582 8-8v-17c0-4.418-3.582-8-8-8s-8,3.582-8,8v17c0,4.418 3.582,8 8,8z"/>
    <path d="m93.935,42.519c1.563,1.562 3.609,2.343 5.657,2.343 2.048,0 4.095-0.781 5.657-2.343 3.124-3.125 3.124-8.189 0-11.315l-12.02-12.021c-3.125-3.123-8.189-3.123-11.314,0-3.124,3.125-3.124,8.19 0,11.315l12.02,12.021z"/>
    <path d="m157.575,44.861c2.048,0 4.096-0.781 5.657-2.344l12.02-12.022c3.124-3.124 3.124-8.189-0.001-11.313-3.125-3.125-8.191-3.124-11.314,0.001l-12.02,12.021c-3.124,3.124-3.124,8.189 0.001,11.314 1.563,1.563 3.609,2.343 5.657,2.343z"/>
  </g>
</svg>